<?xml version="1.0" encoding="iso-8859-1"?>
<!-- Uploaded to: SVG Repo, www.svgrepo.com, Generator: SVG Repo Mixer Tools -->
<svg fill="#000000" version="1.1" id="Layer_1" xmlns="http://www.w3.org/2000/svg" xmlns:xlink="http://www.w3.org/1999/xlink" 
	 viewBox="0 0 512 512" xml:space="preserve">
<g>
	<g>
		<path d="M410.655,0h-307.04C80.985,0,61.44,17.726,61.44,40.326v430.025c0,22.6,19.545,41.649,42.175,41.649h307.04
			c22.63,0,39.905-19.049,39.905-41.649V40.326C450.56,17.726,433.285,0,410.655,0z M430.08,470.351
			c0,11.31-8.085,21.169-19.425,21.169h-307.04c-11.34,0-21.695-9.859-21.695-21.169V40.326c0-11.305,10.355-19.846,21.695-19.846
			h307.04c11.34,0,19.425,8.541,19.425,19.846V470.351z"/>
	</g>
</g>
<g>
	<g>
		<rect x="112.64" y="51.2" width="20.48" height="40.96"/>
	</g>
</g>
<g>
	<g>
		<rect x="378.88" y="419.84" width="20.48" height="40.96"/>
	</g>
</g>
<g>
	<g>
		<path d="M351.415,242.981l-88.02-88.025c-1.92-1.92-4.52-3-7.24-3c-2.72,0-5.32,1.08-7.24,3l-88.03,88.025
			c-1.92,1.92-3,4.525-3,7.24c0,2.715,1.08,5.32,3,7.24l88.03,88.025c1.92,1.92,4.52,3,7.24,3c2.72,0,5.32-1.08,7.24-3l88.02-88.025
			C355.415,253.461,355.415,246.981,351.415,242.981z M256.155,323.766l-73.55-73.545l73.55-73.545l73.54,73.545L256.155,323.766z"
			/>
	</g>
</g>
</svg>